HIERARCHY
ROOT Hips
{
  OFFSET -223.776 96.9323 -124.949
  CHANNELS 6 Xposition Yposition Zposition Zrotation Xrotation Yrotation
  JOINT RightUpLeg
  {
    OFFSET -8.9458 -8.66707 0.101652
    CHANNELS 3 Zrotation Xrotation Yrotation
    JOINT RightLeg
    {
      OFFSET 0 -44.4227 1.3727
      CHANNELS 3 Zrotation Xrotation Yrotation
      JOINT RightFoot
      {
        OFFSET 0.253549 -42.0924 -1.46059
        CHANNELS 3 Zrotation Xrotation Yrotation
        JOINT RightToes
        {
          OFFSET 0.04 -4.41509 8.4991
          CHANNELS 3 Zrotation Xrotation Yrotation
          End Site
          {
            OFFSET -0.08 -0.137448 9.77979
          }
        }
      }
    }
  }
  JOINT Spine
  {
    OFFSET 0 11.8905 0
    CHANNELS 3 Zrotation Xrotation Yrotation
    JOINT Spine1
    {
      OFFSET 0 25.6574 0.127663
      CHANNELS 3 Zrotation Xrotation Yrotation
      JOINT HEad
      {
        OFFSET 0 8.73416 0.011341
        CHANNELS 3 Zrotation Xrotation Yrotation
        End Site
        {
          OFFSET -0.29 12.7742 2.51395
        }
      }
      JOINT LeftShoulder1
      {
        OFFSET 8.99 -0.362252 -0.22
        CHANNELS 3 Zrotation Xrotation Yrotation
        JOINT LeftArm
        {
          OFFSET 10.2827 -0.00338 0.322123
          CHANNELS 3 Zrotation Xrotation Yrotation
          JOINT LeftForeArm
          {
            OFFSET 32.7669 0.099144 -1.42434
            CHANNELS 3 Zrotation Xrotation Yrotation
            JOINT LeftHand
            {
              OFFSET 27.5643 0.085362 1.02216
              CHANNELS 3 Zrotation Xrotation Yrotation
              End Site
              {
                OFFSET 16.7443 -0.6 1.50291
              }
            }
          }
        }
      }
      JOINT RightShoulder
      {
        OFFSET -8.99 -0.362252 -0.22
        CHANNELS 3 Zrotation Xrotation Yrotation
        JOINT RightArm
        {
          OFFSET -10.2827 -0.00338 0.322123
          CHANNELS 3 Zrotation Xrotation Yrotation
          JOINT RightForeArm
          {
            OFFSET -32.8971 0.099144 -1.42434
            CHANNELS 3 Zrotation Xrotation Yrotation
            JOINT RightHand
            {
              OFFSET -27.4921 0.085362 1.02216
              CHANNELS 3 Zrotation Xrotation Yrotation
              End Site
              {
                OFFSET -16.6312 -0.6 1.50291
              }
            }
          }
        }
      }
    }
  }
  JOINT LeftUpLeg
  {
    OFFSET 8.9458 -8.66707 0.101652
    CHANNELS 3 Zrotation Xrotation Yrotation
    JOINT LeftLeg
    {
      OFFSET 0 -44.4227 1.3727
      CHANNELS 3 Zrotation Xrotation Yrotation
      JOINT LeftFoot
      {
        OFFSET -0.253549 -42.0924 -1.46059
        CHANNELS 3 Zrotation Xrotation Yrotation
        JOINT LeftToes
        {
          OFFSET -0.04 -4.41509 8.4991
          CHANNELS 3 Zrotation Xrotation Yrotation
          End Site
          {
            OFFSET 0.08 -0.047448 9.77979
          }
        }
      }
    }
  }
}
MOTION
Frames:	15
Frame Time:	0.0166667
-228.299 94.7973 -129.983 12.2199 9.54657 131.167 -26.6682 2.67376 17.8348 33.8709 31.1126 -35.4245 -22.7875 0.522856 -1.27637 0.0462048 0.000533403 0.662642 -2.08058 22.8123 -1.24978 4.18454e-007 0.00464993 -0.000920315 -8.31516 11.9579 13.3791 -7.95139e-016 0 -0 -175.444 -61.144 -145.49 -103.501 58.8743 -13.823 14.6972 14.2391 -15.863 15.6731 8.50262 -0.679107 102.53 -12.7015 71.9967 36.2803 54.5787 84.4677 19.5199 22.1913 -2.42743 23.7905 -7.34326 -1.30421 -35.7282 14.4805 60.7871 2.89677 -2.97943 -0.000874345 -1.18447e-009 1.5602e-007 -4.87131e-009 
-228.36 95.3356 -130.414 11.8849 9.52362 131.38 -26.6468 3.56379 17.6431 33.2169 31.1636 -34.0255 -20.4059 0.381452 -1.19443 0.0462048 0.000533403 0.662642 -2.97838 23.197 -0.716965 -6.77848e-006 0.0327309 0.0124675 -7.76475 11.2913 12.0889 -1.59028e-015 7.95139e-016 1.27222e-014 -170.178 -60.0173 -142.954 -104.613 54.969 -11.8068 8.50109 10.2989 -16.2686 15.5979 8.30296 -1.18354 101.473 -15.4126 72.4052 35.9958 52.9706 85.2841 23.9655 24.3294 -9.8662 23.4423 -7.31358 -2.293 -35.9414 13.6342 60.5131 3.1171 -2.96776 0.0273887 -1.18446e-009 1.5602e-007 -4.87131e-009 
-228.364 95.8164 -130.727 11.5416 9.48184 131.642 -26.589 4.37913 17.4146 33.0891 31.787 -32.7636 -18.4982 0.37477 -1.1365 0.0462048 0.000533403 0.662642 -3.95867 23.8936 0.0784563 -0.000596602 0.0285015 0.0199679 -7.04168 10.3701 10.4595 -1.59028e-015 -2.38542e-015 -3.18055e-015 -165.11 -58.499 -140.656 -106.653 49.808 -9.19989 2.42452 5.81295 -17.4878 12.2279 9.56473 -0.28212 103.421 -19.9558 74.7324 35.4901 50.4328 86.4361 29.9122 26.1184 -18.0035 23.0779 -7.38392 -3.32216 -35.8584 12.9695 59.5632 3.10631 -3.05223 0.029528 -1.18447e-009 1.5602e-007 -4.87131e-009 
-228.308 96.3349 -130.901 11.1453 9.4186 132.092 -26.6907 5.71784 18.1467 33.5828 31.1356 -32.5765 -19.1523 0.469348 -1.20124 0.0462048 0.000533403 0.662642 -5.23758 25.3813 1.86254 -0.0205252 0.0748257 0.0755049 -5.69819 8.6782 7.54315 1.59028e-015 1.59028e-015 6.36111e-015 -160.257 -56.0355 -138.358 -110.216 40.999 -5.87803 10.8237 16.7783 -19.885 1.65729 11.5068 6.54532 111.436 -30.7907 80.8952 32.7226 45.0392 88.4802 39.5537 27.9489 -24.3149 22.4245 -7.67114 -4.484 -34.5949 12.6318 56.3642 2.49432 -3.34951 0.0106828 -1.18446e-009 1.5602e-007 -4.87131e-009 
-228.224 96.9214 -130.866 10.7247 9.37179 132.688 -26.9147 6.84568 18.8324 34.2501 30.1953 -32.8714 -18.6592 0.494353 -1.19798 0.0462048 0.000533403 0.662642 -6.86431 27.4024 4.64155 -0.0251153 0.0612956 0.074106 -3.9576 6.49955 3.65258 -0 -1.59028e-015 -0 -155.947 -53.0348 -136.123 -112.486 30.1817 -4.17758 1.814 5.00099 -21.8664 2.48031 9.23657 4.40999 103.087 -36.8123 79.1493 27.9504 38.9428 90.6618 46.375 29.9122 -23.9394 21.3991 -8.06365 -5.75878 -32.2853 12.3889 51.3979 1.49417 -3.78335 -0.0433784 -1.18446e-009 1.5602e-007 -4.87131e-009 
-228.161 97.4858 -130.604 10.3078 9.37803 133.37 -27.1368 7.79501 19.4682 35.0247 28.8711 -33.6353 -18.8749 0.525918 -1.21713 0.0462048 0.000533403 0.662642 -8.87714 29.74 8.36472 -0.0173956 0.0447446 0.0605971 -2.02018 3.91159 -1.00624 8.82781e-032 1.59028e-015 -3.18055e-015 -152.044 -49.5664 -133.698 -113.785 23.4078 -3.83616 6.03321 21.9847 -24.3282 -5.74018 7.71455 9.55911 104.779 -45.2218 82.3252 21.544 33.2315 85.4139 52.3089 35.2344 -14.5343 20.143 -8.48133 -7.10885 -30.1743 12.1651 47.2852 0.660242 -4.09669 -0.125818 -1.18446e-009 1.5602e-007 -4.87131e-009 
-228.138 98.0666 -130.096 9.91011 9.46627 134.073 -27.4144 8.56655 20.1114 35.9585 27.1482 -34.8648 -18.9795 0.513812 -1.22489 0.0462048 0.000533403 0.662642 -11.3624 32.2432 13.0411 -0.0147658 0.0374041 0.0542476 -0.0319952 0.95523 -6.25896 3.18055e-015 -6.36111e-015 9.54166e-015 -148.549 -45.7733 -131.035 -114.779 19.3803 -3.9981 4.90984 16.7474 -23.368 -3.65095 5.27655 4.67622 93.2794 -43.6721 80.494 13.3257 29.3574 79.7752 38.8197 34.9978 12.7218 18.7561 -8.89902 -8.47392 -28.0978 11.9882 43.9403 -0.128034 -4.3286 -0.186914 -1.18446e-009 1.5602e-007 -4.87131e-009 
-228.144 98.5756 -129.355 9.5208 9.65486 134.75 -27.663 9.18992 20.7502 36.7495 24.8328 -36.2587 -19.2836 0.436985 -1.21642 0.0462048 0.000533403 0.662642 -13.3212 33.7617 16.9681 0.0293319 -0.031083 -0.0390584 1.28618 -0.981431 -10.7945 0 0 -3.18055e-015 -146.238 -43.4448 -128.46 -115.554 17.1599 -4.3395 7.10098 24.8908 -24.7233 -12.0977 3.9914 7.88947 95.2288 -46.6694 81.7966 6.2608 28.2014 76.1401 31.1971 33.6959 25.4026 17.3203 -9.32096 -9.79138 -25.9919 11.8564 41.2977 -0.939087 -4.49162 -0.242949 -1.18446e-009 1.5602e-007 -4.87131e-009 
-228.133 98.9581 -128.448 9.11315 9.92612 135.374 -27.8775 9.71486 21.3605 37.2583 22.1878 -37.7542 -19.682 0.315517 -1.20862 0.0462048 0.000533403 0.662642 -14.7298 34.5295 20.0695 0.023992 -0.0245127 -0.0353187 2.1782 -2.17133 -14.8192 1.76556e-031 -3.18055e-015 3.18055e-015 -146.552 -44.5539 -124.439 -114.472 16.529 -6.20169 0.913899 22.5429 -22.3674 -11.4502 3.61766 4.173 89.0513 -41.4172 83.9116 3.17236 28.0951 71.9756 19.0915 24.8839 38.1908 15.8842 -9.7974 -11.0063 -23.8447 11.8561 39.3014 -1.84393 -4.61574 -0.305258 -1.18446e-009 1.5602e-007 -4.87131e-009 
-228.054 99.1995 -127.442 8.67175 10.2427 135.954 -28.0735 10.1967 21.9068 37.5317 19.5228 -39.299 -20.0151 0.174893 -1.19272 0.0462048 0.000533403 0.662642 -15.5795 34.6742 22.3528 0.0248221 -0.0192224 -0.0314092 2.72059 -2.62282 -18.3037 5.29669e-031 3.18055e-015 -9.54166e-015 -148.476 -48.1065 -119.72 -117.201 18.6518 -6.25385 -1.14966 27.3604 -21.8751 -21.2309 2.62484 8.94521 95.3853 -42.516 88.2558 3.85834 28.3036 66.838 18.1148 27.1601 41.2383 14.5075 -10.3118 -12.1101 -21.7093 11.9769 37.8694 -2.83519 -4.70742 -0.370168 -1.18447e-009 1.5602e-007 -4.87131e-009 
-227.883 99.3153 -126.402 8.19478 10.5695 136.513 -28.2548 10.6873 22.3597 37.6388 17.0494 -40.842 -20.2038 0.0344962 -1.16766 0.0462048 0.000533403 0.662642 -15.9756 34.3073 23.941 0.0133923 -0.00759174 -0.0230198 3.09931 -2.47762 -21.34 -1.59028e-015 0 -0 -148.672 -50.7132 -115.55 -118.601 19.9015 -6.54858 13.0352 14.4137 -18.5908 -20.9988 3.56219 6.60361 93.2197 -35.097 94.1714 6.34986 29.4178 61.6096 10.1572 20.4227 45.6271 13.2548 -10.8294 -13.1153 -19.6906 12.1557 36.9266 -3.84053 -4.75587 -0.428269 -1.18446e-009 1.5602e-007 -4.87131e-009 
-227.62 99.3324 -125.382 7.69975 10.8771 137.081 -28.41 11.2172 22.6965 37.6547 14.8768 -42.3325 -20.1912 -0.0951423 -1.13524 0.0462048 0.000533403 0.662642 -16.0116 33.5234 24.9586 0.0026225 0.00323884 -0.0155503 3.42006 -1.85129 -23.9952 -1.59028e-015 -3.18055e-015 -3.18055e-015 -148.032 -53.0909 -111.557 -115.035 19.2509 -9.02428 -1.80149 20.4603 -16.002 -21.4467 4.69017 5.47269 93.5876 -28.5343 99.6367 8.64487 32.3272 63.6611 20.9305 26.5812 24.4421 12.1679 -11.3314 -14.0449 -17.8845 12.3551 36.4113 -4.77785 -4.7602 -0.474554 -1.18447e-009 1.5602e-007 -4.87132e-009 
-227.269 99.2761 -124.432 7.20898 11.1447 137.685 -28.5285 11.791 22.9042 37.6388 13.0501 -43.7295 -19.9592 -0.208132 -1.09955 0.0462048 0.000533403 0.662642 -15.7622 32.4388 25.5143 0.0010561 0.0145096 -0.00552794 3.71287 -0.883537 -26.3197 1.59028e-015 0 3.18055e-015 -146.577 -55.3873 -107.43 -113.186 19.019 -10.6092 1.4513 18.36 -16.7867 -21.8421 6.05206 5.65651 94.8804 -21.2887 105.701 12.2027 35.274 62.3806 9.27379 22.9006 39.1039 11.2587 -11.8117 -14.9145 -16.3576 12.5678 36.2637 -5.57909 -4.73525 -0.508251 -1.18446e-009 1.5602e-007 -4.87132e-009 
-226.833 99.1642 -123.598 6.73873 11.3605 138.331 -28.6107 12.3945 22.9814 37.6382 11.5725 -44.9985 -19.5106 -0.302399 -1.06218 0.0462048 0.000533403 0.662642 -15.2984 31.1456 25.6775 0.00351273 0.0306601 0.00157076 3.9849 0.313972 -28.3046 1.59028e-015 0 6.36111e-015 -144.257 -57.8216 -102.726 -108.31 15.9291 -13.2595 -10.1353 23.1103 -14.6083 -22.0372 7.60495 6.64138 96.9047 -13.7444 111.51 17.53 36.0394 57.7094 25.9285 29.5653 20.9312 10.5165 -12.2671 -15.7247 -15.1381 12.8016 36.4197 -6.20415 -4.68994 -0.530078 -1.18446e-009 1.5602e-007 -4.87132e-009 
-226.318 99.0138 -122.911 6.30209 11.5181 139.001 -28.6642 13.0051 22.9403 37.6854 10.4207 -46.1125 -18.87 -0.378571 -1.02414 0.0462048 0.000533403 0.662642 -14.6895 29.7048 25.4789 0.00742243 0.0380403 0.004258 4.23096 1.68478 -29.8983 -2.38542e-015 -3.18055e-015 -0 -135.214 -62.2881 -89.4991 -104.1 13.7546 -17.9429 2.09828 15.6979 -17.7666 -21.9083 9.3343 7.80291 100.135 -5.85351 115.932 18.3984 38.2819 52.259 25.6497 32.7146 18.5659 9.92763 -12.6901 -16.4642 -14.2269 13.065 36.8169 -6.6383 -4.63372 -0.540924 -1.18446e-009 1.5602e-007 -4.87131e-009 
